<svg xmlns="http://www.w3.org/2000/svg" viewBox="0 0 64 64" role="img" aria-label="Football">
  <defs>
    <clipPath id="ball">
      <circle cx="32" cy="32" r="30" />
    </clipPath>
  </defs>
  <circle cx="32" cy="32" r="30" fill="#ffffff" />
  <g clip-path="url(#ball)">
    <g stroke="#112e51" stroke-width="2.4" stroke-linecap="round">
      <line x1="32" y1="23" x2="32" y2="2" />
      <line x1="40.6" y1="29.2" x2="60.5" y2="22.7" />
      <line x1="37.3" y1="39.3" x2="49.6" y2="56.3" />
      <line x1="26.7" y1="39.3" x2="14.4" y2="56.3" />
      <line x1="23.4" y1="29.2" x2="3.5" y2="22.7" />
    </g>
    <g fill="#112e51">
      <polygon points="32,23 40.6,29.2 37.3,39.3 26.7,39.3 23.4,29.2" />
      <polygon points="51.5,38.3 57.7,33.8 63.9,38.3 61.5,45.6 53.9,45.6" />
      <polygon points="32,52.5 38.2,57 35.8,64.3 28.2,64.3 25.8,57" />
      <polygon points="12.5,38.3 10.1,45.6 2.5,45.6 0.1,38.3 6.3,33.8" />
      <polygon points="19.9,15.4 12.3,15.4 9.9,8.2 16.1,3.7 22.3,8.2" />
      <polygon points="44.1,15.4 41.7,8.2 47.9,3.7 54.1,8.2 51.7,15.4" />
    </g>
  </g>
  <circle cx="32" cy="32" r="30" fill="none" stroke="#0b1f38" stroke-width="3" />
</svg>
